<svg width="24" height="24" viewBox="0 0 24 24" fill="none" xmlns="http://www.w3.org/2000/svg">
<path d="M19.95 21C17.8 21 15.7043 20.5207 13.663 19.562C11.6217 18.6033 9.81333 17.3367 8.238 15.762C6.66267 14.1873 5.396 12.379 4.438 10.337C3.48 8.295 3.00067 6.19933 3 4.05C3 3.75 3.1 3.5 3.3 3.3C3.5 3.1 3.75 3 4.05 3H8.1C8.33333 3 8.54167 3.075 8.725 3.225C8.90833 3.375 9.01667 3.56667 9.05 3.8L9.7 7.3C9.73333 7.53333 9.729 7.746 9.687 7.938C9.645 8.13 9.54933 8.30067 9.4 8.45L7 10.9C7.7 12.1 8.575 13.225 9.625 14.275C10.675 15.325 11.8333 16.2333 13.1 17L15.45 14.65C15.6 14.5 15.796 14.3877 16.038 14.313C16.28 14.2383 16.5173 14.2173 16.75 14.25L20.2 14.95C20.4333 15 20.625 15.1127 20.775 15.288C20.925 15.4633 21 15.6673 21 15.9V19.95C21 20.25 20.9 20.5 20.7 20.7C20.5 20.9 20.25 21 19.95 21Z" fill="#007DFE"/>
</svg>
